<?xml version="1.0" standalone="no"?><!DOCTYPE svg PUBLIC "-//W3C//DTD SVG 1.1//EN" "http://www.w3.org/Graphics/SVG/1.1/DTD/svg11.dtd"><svg class="icon" height="512" viewBox="0 0 1024 1024" version="1.1" xmlns="http://www.w3.org/2000/svg"><path d="M884.250036 431.915172c-3.106108 36.257523-22.786646 55.913785-59.018615 59.019893-35.213636-3.106108-54.358814-22.76237-57.4662-59.019893 3.107386-35.188081 22.252564-54.358814 57.4662-57.464922C861.46339 377.556358 881.143928 396.727091 884.250036 431.915172zM786.403149 431.915172c3.107386 24.851423 16.042903 38.829549 38.828272 41.935658 22.76237-2.063499 35.722163-16.040348 38.829549-41.935658-3.107386-24.848867-16.065902-38.29419-38.829549-40.380687C802.444775 394.640593 789.509258 408.107637 786.403149 431.915172zM727.383256 514.232795c-1.043888 103.549298-34.701275 156.332698-100.952996 158.419196-69.382106-1.043888-104.060382-53.82601-104.060382-158.419196 1.019611-104.570187 35.188081-158.421751 102.507966-161.527859C692.170898 354.793988 726.339369 408.61872 727.383256 514.232795zM558.092042 514.232795c0 89.060088 22.253842 133.059245 66.785803 132.015357 44.507684 1.04261 66.785803-42.955269 66.785803-132.015357 0-90.082255-22.789202-134.589939-68.336941-133.570328C580.856968 383.767297 559.111653 428.299258 558.092042 514.232795zM373.269009 563.931807c-58.000282-5.169607-89.572449-39.338077-94.740779-102.507966 4.125719-67.293053 37.785662-103.525022 100.954273-108.720183 72.463938-1.018333 108.186101 50.23565 107.16649 153.760672 0 109.764071-37.808661 165.142496-113.378707 166.186383-45.573293-2.087775-74.550435-24.317341-86.974869-66.785803l32.616055-10.872018c7.23055 36.254968 26.40256 53.850286 57.4662 52.805121 48.656403-2.060943 73.506548-45.040489 74.550435-128.909249C435.39501 548.93407 409.500978 563.931807 373.269009 563.931807zM376.376395 382.214882c-39.362354 3.106108-60.572308 28.490335-63.678417 76.104128 2.062221 47.638069 23.296452 72.99802 63.678417 76.104128 40.380687 0 65.230832-18.637928 74.550435-55.913785C450.92683 413.277244 426.075407 381.195271 376.376395 382.214882zM511.998722 1024C229.684004 1024 0.015971 794.31919 0.015971 511.982751c0-0.336037 0.012777-0.668241 0.012777-1.004279l53.978057 0c-0.001278 0.336037-0.012777 0.668241-0.012777 1.004279 0 252.572229 205.451631 458.031526 458.004694 458.031526 252.554341 0 458.007249-205.459297 458.007249-458.031526 0-252.536453-205.452909-458.002139-458.007249-458.002139-141.925262 0-268.929448 64.924182-353.002642 166.585028l120.583703-0.954448 8.147945 0-47.112931 47.806727-167.972619 1.336483L71.53185 100.784338l47.176817-47.870612 0.037054 5.51331 0 126.123845C212.731373 71.853193 354.11872 0 511.998722 0 794.315996 0 1023.984029 229.68081 1023.984029 511.982751 1023.984029 794.31919 794.315996 1024 511.998722 1024z" /></svg>