<?xml version="1.0" standalone="no"?><!DOCTYPE svg PUBLIC "-//W3C//DTD SVG 1.1//EN" "http://www.w3.org/Graphics/SVG/1.1/DTD/svg11.dtd"><svg class="icon" height="512" viewBox="0 0 1024 1024" version="1.1" xmlns="http://www.w3.org/2000/svg"><path d="M375.5392 562.25408c-57.95712-5.16608-89.50784-39.31008-94.67392-102.43328 4.12416-67.24736 37.75872-103.45216 100.88192-108.64256 72.41088-1.01632 108.1088 50.19904 107.08992 153.6512 0 109.68576-37.78304 165.02528-113.2992 166.0672-45.5424-2.08512-74.496-24.29696-86.912-66.73664l32.59136-10.86464c7.22688 36.2304 26.38464 53.8112 57.42592 52.76928 48.6208-2.05952 73.45408-45.00736 74.496-128.81792C437.6192 547.26656 411.744 562.25408 375.5392 562.25408zM378.6432 380.66688c-39.3344 3.10528-60.52992 28.46976-63.63392 76.04992 2.06208 47.6032 23.28064 72.94592 63.63392 76.04992 40.352 0 65.18528-18.624 74.496-55.872C453.14048 411.70688 428.30848 379.648 378.6432 380.66688zM524.53376 512.5888c1.01888-104.49408 35.16288-158.30656 102.43328-161.41184 67.2448 2.0864 101.39136 55.87328 102.43328 161.41184-1.04192 103.47648-34.67904 156.22144-100.88064 158.30656C559.1872 669.85344 524.53376 617.10848 524.53376 512.5888zM693.70496 512.5888c0-90.01728-22.7712-134.49344-68.29056-133.47456-42.43712 3.104-64.1664 47.60448-65.18528 133.47456 0 88.99968 22.23744 132.96512 66.73792 131.92064C671.44192 645.55392 693.70496 601.58848 693.70496 512.5888zM769.7536 430.33216c3.104-35.16416 22.23744-54.32064 57.42592-57.42464 36.20352 3.104 55.87072 22.26048 58.97472 57.42464-3.104 36.22912-22.7712 55.872-58.97472 58.976C791.99104 486.20416 772.8576 466.56128 769.7536 430.33216zM865.97888 430.33216c-3.104-24.83328-16.05248-38.26816-38.79936-40.35328-22.77376 3.104-35.6992 16.5632-38.80192 40.35328 3.104 24.832 16.02816 38.80064 38.80192 41.90336C849.9264 470.176 862.87488 456.20736 865.97888 430.33216zM511.61856 1023.26912C229.504 1023.26912 0 793.75104 0 511.61856 0 229.51808 229.504 0 511.61856 0c157.76768 0 299.05536 71.80288 392.97408 184.42112L904.59264 59.66208l0.03712-5.50912 47.1424 47.83744-1.10976 167.85024-167.8528-1.33632-47.07968-47.77216 8.14336 0 121.57312 0.96384C781.44128 119.36128 654.04416 53.94304 511.61856 53.94304c-252.37376 0-457.67936 205.31712-457.67936 457.67552 0 252.3904 205.30688 457.7024 457.67936 457.7024 252.37376 0 457.67936-205.312 457.67936-457.7024 0-0.33792-0.01152-0.66944-0.01152-1.0048l53.93792 0c0.00128 0.33536 0.01408 0.66688 0.01408 1.0048C1023.23712 793.75104 793.73312 1023.26912 511.61856 1023.26912z" /></svg>