<?xml version="1.0" encoding="UTF-8" standalone="no"?>
<!-- Created with Skedio (http://skedio.shturmsoft.com/) -->
<svg id="svg2" xmlns:rdf="http://www.w3.org/1999/02/22-rdf-syntax-ns#" xmlns="http://www.w3.org/2000/svg" height="500" width="520" version="1.1" xmlns:cc="http://creativecommons.org/ns#" xmlns:dc="http://purl.org/dc/elements/1.1/" viewBox="0 0 416 400">
 <metadata id="metadata128">
  <rdf:RDF>
   <cc:Work rdf:about="">
    <dc:format>image/svg+xml</dc:format>
    <dc:type rdf:resource="http://purl.org/dc/dcmitype/StillImage"/>
    <dc:title/>
   </cc:Work>
  </rdf:RDF>
 </metadata>
 <g id="g3121" stroke-linejoin="round" transform="translate(0,608.55508)" stroke-linecap="round" stroke-width="6" fill="none">
  <path id="path112" opacity="0.9" d="m31.657-271.34c-0.01-0.03-0.026-0.091-0.03-0.09-0.002,0,0.002,0.03,0,0.03-0.006,0.001-0.057-0.081-0.06-0.179-0.01-0.438,0.298-2.07,1.015-3.61,1.583-3.406,7.427-9.683,10.293-15.158,2.975-5.681,5.24-11.701,7.102-18.409,2.113-7.618,4.028-18.105,4.385-25.063,0.253-4.913-0.037-7.939-0.895-12.651-1.136-6.242-2.958-13.395-6.355-21.333-4.803-11.225-16.197-25.505-22.079-38.639-5.593-12.49-10.453-26.848-12.77-38.162-1.774-8.661-2.445-14.902-1.91-23.511,0.666-10.702,4.487-26.53,7.43-35.685,1.944-6.05,3.962-10.312,6.444-14.56,2.171-3.715,4.671-6.639,7.281-9.757,2.628-3.14,5.143-6.026,8.443-9.011,3.912-3.537,8.355-7.124,13.785-10.532,6.818-4.28,15.059-8.965,24.406-12.352,11.389-4.128,26.796-8.211,39.564-9.131,11.721-0.844,23.14,1.573,34.103,2.835,10.281,1.183,20.748,1.766,29.777,4.386,8.101,2.35,15.44,5.88,22.139,9.846,6.313,3.739,12.569,8.088,17.126,13.039,4.145,4.502,6.794,9.591,9.577,15.008,2.959,5.758,5.419,12.075,7.49,18.678,2.219,7.076,4.242,14.282,5.191,22.527,1.123,9.751-0.818,24.56,0.089,32.343,0.524,4.488,0.775,6.536,2.447,10.472,2.567,6.042,9.148,15.137,13.755,21.274,3.853,5.133,9.296,9.681,11.606,13.397,1.387,2.229,2.36,4.303,2.477,5.878,0.075,1.015,0.063,1.604-0.657,2.566-2.01,2.684-14.629,7.517-17.752,10.532-1.499,1.447-2.477,2.566-2.566,3.998-0.096,1.542,1.323,3.347,2.38,4.971,1.199,1.844,4.707,4.066,4.617,5.404-0.059,0.876-1.38,1.348-2.271,2.031-1.109,0.849-3.029,1.494-3.951,2.572-0.819,0.959-1.352,2.15-1.521,3.402-0.191,1.411-0.054,3.31,0.716,4.684,0.877,1.565,4.16,2.481,4.701,3.964,0.432,1.184,0.031,2.465-0.667,3.862-1.158,2.32-6.182,4.244-7.406,7.868-1.718,5.088,2.885,16.352,2.208,21.184-0.371,2.649-1.116,4.241-2.387,5.938-1.346,1.798-3.09,3.185-5.639,4.446-3.94,1.949-9.682,3.732-16.619,4.266-11.204,0.864-36.123-6.151-44.546-4.356-3.659,0.78-5.082,2.316-7.34,4.177-2.522,2.08-4.583,4.606-6.862,7.997-3.22,4.789-7.675,13.634-9.608,18.707-1.233,3.239-1.617,8.078-2.148,8.295-0.107,0.044-0.223-0.054-0.298-0.179-0.184-0.303-0.08-1.372-0.12-2.058" stroke="#000"/>
  <path id="path114" d="m289.64-415.12c2.859,5.966,6.228,12,8.577,17.897,2.176,5.464,4.134,10.568,5.214,16.214,1.125,5.879,1.37,12.288,1.237,18.422-0.134,6.145-0.932,12.273-2.043,18.416-1.142,6.308-2.815,12.801-4.785,18.938-1.939,6.04-7.273,17.365-6.907,17.611,0.07,0.047,0.338-0.321,0.507-0.482" stroke="#fe2712"/>
  <path id="path116" d="m324.5-402.54c1.804,5.71,4.134,11.051,5.41,17.129,1.388,6.614,2.296,14.145,2.291,21.15-0.005,6.917-1.127,13.588-2.261,20.617-1.208,7.483-3.279,15.323-4.918,22.984" stroke="#fe2712"/>
  <path id="path118" d="m353.84-394.35c0.921,4.648,2.059,9.171,2.762,13.944,0.732,4.963,1.455,10.139,1.489,15.293,0.035,5.264-0.558,10.615-1.34,15.968-0.806,5.514-2.324,11.092-3.486,16.638" stroke="#fe2712"/>
  <path id="path120" d="m380.32-378.71c0.669,4.994,1.975,9.92,2.006,14.981,0.032,5.19-1.277,10.521-1.916,15.782" stroke="#fe2712"/>
  <path id="path122" d="m404.39-366.77c0.202,0.854,0.567,1.713,0.605,2.562,0.038,0.826-0.234,1.643-0.352,2.465" stroke="#fe2712"/>
 </g>
</svg>
